<svg xmlns="http://www.w3.org/2000/svg" width="19" height="19" viewBox="0 0 19 19"><g transform="translate(-2.5 -2.5)" opacity="0.5"><g transform="translate(2.5 2.5)"><path d="M16.117,10.252A2.922,2.922,0,0,1,19,13.186h0v2.871A2.931,2.931,0,0,1,16.117,19H13.3a2.923,2.923,0,0,1-2.874-2.943h0V13.186A2.9,2.9,0,0,1,13.3,10.252h2.812Zm-12.079,0a.771.771,0,0,1,.74.367.806.806,0,0,1,0,.84.771.771,0,0,1-.74.367H2.883a1.354,1.354,0,0,0-1.34,1.359h0v2.835a1.381,1.381,0,0,0,1.34,1.359h2.83a1.318,1.318,0,0,0,.947-.395,1.374,1.374,0,0,0,.393-.964h0V11.764l-.012-.106a.8.8,0,0,1,.36-.707.763.763,0,0,1,.868.026.8.8,0,0,1,.3.832h0v4.239a2.914,2.914,0,0,1-2.883,2.943h-2.8A2.976,2.976,0,0,1,0,16.048H0V13.186a2.965,2.965,0,0,1,.845-2.078,2.844,2.844,0,0,1,2.038-.856H4.038Zm12.079,1.575H13.3a1.345,1.345,0,0,0-1.331,1.359h0v2.871a1.364,1.364,0,0,0,.387.964,1.309,1.309,0,0,0,.944.4h2.812a1.309,1.309,0,0,0,.944-.4,1.365,1.365,0,0,0,.387-.964h0V13.186a1.373,1.373,0,0,0-.39-.961,1.318,1.318,0,0,0-.941-.4ZM16.117,0a2.976,2.976,0,0,1,2.874,2.943h0V5.805a2.967,2.967,0,0,1-.817,2.085,2.846,2.846,0,0,1-2.022.885H14.988a.794.794,0,0,1,0-1.575h1.128a1.327,1.327,0,0,0,.948-.41,1.383,1.383,0,0,0,.383-.976h0V2.943a1.363,1.363,0,0,0-1.331-1.359H13.3a1.345,1.345,0,0,0-1.331,1.359h0V7.236l-.01.107a.789.789,0,0,1-.783.667.76.76,0,0,1-.54-.245A.792.792,0,0,1,10.43,7.2h0V2.943A2.965,2.965,0,0,1,11.269.863,2.845,2.845,0,0,1,13.3,0h2.812ZM5.7,0A2.922,2.922,0,0,1,8.579,2.943h0V5.814a2.965,2.965,0,0,1-.845,2.078A2.845,2.845,0,0,1,5.7,8.748H2.883A2.922,2.922,0,0,1,0,5.814H0V2.943A2.931,2.931,0,0,1,2.883,0H5.7Zm0,1.584H2.883a1.317,1.317,0,0,0-.959.388,1.373,1.373,0,0,0-.4.971h0V5.814a1.374,1.374,0,0,0,.39.988,1.317,1.317,0,0,0,.968.4H5.7a1.327,1.327,0,0,0,.948-.41,1.383,1.383,0,0,0,.383-.976h0V2.943A1.354,1.354,0,0,0,5.7,1.584Z" fill="#3b3b3b"/></g></g></svg>