<svg xmlns="http://www.w3.org/2000/svg" width="20" height="20" viewBox="0 0 20 20"><g transform="translate(-2 -2)"><g transform="translate(2 2)"><path d="M19.235,10.677A.765.765,0,0,0,20,9.912V8.892c0-4.046-1.8-6.016-5.495-6.016H11.78a1.424,1.424,0,0,1-1.134-.554l-.879-1.17A2.989,2.989,0,0,0,7.4,0H5.486C1.846,0,0,2.1,0,6.253v7.5C0,17.608,2.391,20,6.251,20h7.49c3.851,0,6.25-2.392,6.25-6.245a.774.774,0,0,0-1.538,0c0,3.034-1.67,4.714-4.712,4.714h-7.5C3.2,18.47,1.53,16.8,1.53,13.755v-.73H13.837a.765.765,0,0,0,0-1.53H1.53V6.218C1.53,2.911,2.708,1.5,5.477,1.5H7.411a1.468,1.468,0,0,1,1.134.563l.879,1.161A2.962,2.962,0,0,0,11.78,4.4H14.5c2.857,0,3.965,1.275,3.965,4.494v1.02a.765.765,0,0,0,.774.765Z" fill="#9d9d9d"/></g></g></svg>
