<svg xmlns="http://www.w3.org/2000/svg" width="20" height="19" viewBox="0 0 20 19"><g transform="translate(-2 -2.5)" opacity="0.5"><g transform="translate(2 2.5)"><path d="M7.591,11.918c3.259,0,7.591.366,7.591,3.532,0,3.338-5.049,3.538-7.213,3.55H7.591a.748.748,0,1,1,0-1.5c2.779,0,6.091-.356,6.091-2.055,0-1.351-2.049-2.036-6.091-2.036-2.779,0-6.092.356-6.092,2.056,0,.381.112.872.984,1.3a5.781,5.781,0,0,0,1.328.43A.748.748,0,1,1,3.5,18.66a7.36,7.36,0,0,1-1.676-.548A2.856,2.856,0,0,1,0,15.469C0,11.918,5.714,11.918,7.591,11.918Zm8-.705a11.773,11.773,0,0,1,1.728.249,3.191,3.191,0,0,1,2.46,1.516,2.292,2.292,0,0,1,0,1.984A3.235,3.235,0,0,1,17.3,16.488a.783.783,0,0,1-.152.015A.747.747,0,0,1,17,15.023c.763-.156,1.28-.412,1.418-.7a.814.814,0,0,0,0-.7c-.141-.293-.656-.547-1.414-.7a10.15,10.15,0,0,0-1.523-.22.747.747,0,0,1-.7-.8A.758.758,0,0,1,15.587,11.213ZM7.592,0A5.119,5.119,0,1,1,4.433,9.161a.748.748,0,1,1,.921-1.18,3.626,3.626,0,1,0-1.4-2.863.75.75,0,0,1-1.5,0A5.132,5.132,0,0,1,7.592,0Zm6.428,1.067a4.034,4.034,0,1,1,0,8.068.748.748,0,1,1,0-1.5,2.539,2.539,0,1,0,0-5.078.748.748,0,1,1,0-1.5Z" fill="#3b3b3b"/></g></g></svg>