<svg xmlns="http://www.w3.org/2000/svg" width="17" height="20" viewBox="0 0 17 20"><path d="M10.941,0A.573.573,0,0,1,11,.012H11.2a.743.743,0,0,1,.539.233h0l5.049,5.312A.761.761,0,0,1,17,6.08h0v9.228A4.644,4.644,0,0,1,12.535,20H4.57A4.583,4.583,0,0,1,0,15.308H0V12.785a.752.752,0,0,1,.748-.755.752.752,0,0,1,.748.755h0v2.523A3.1,3.1,0,0,0,4.57,18.49h7.965a3.162,3.162,0,0,0,2.97-3.181h0V6.383L11.688,2.369V3.685A1.831,1.831,0,0,0,13.5,5.522a.755.755,0,0,1,0,1.51h0a3.336,3.336,0,0,1-3.308-3.348h0V1.522H4.57a3.078,3.078,0,0,0-3.075,3h0V8.681a.752.752,0,0,1-.748.755A.752.752,0,0,1,0,8.681H0V4.522A4.6,4.6,0,0,1,4.57.012h6.313A.54.54,0,0,1,10.941,0Zm-.189,12.9a.755.755,0,0,1,0,1.51H5.37a.755.755,0,0,1,0-1.51h5.382ZM8.716,7.909a.755.755,0,0,1,0,1.51H5.37a.755.755,0,0,1,0-1.51H8.716Z" fill="#9d9d9d"/></svg>
