<svg xmlns="http://www.w3.org/2000/svg" width="22" height="17" viewBox="0 0 22 17"><path d="M11.4,10.627c2.064.013,6.342.207,6.342,3.178S13.307,16.986,11.368,17H11a.7.7,0,0,1,0-1.392c2.443,0,5.355-.313,5.355-1.8,0-1.186-1.8-1.787-5.355-1.787-2.443,0-5.355.313-5.355,1.8,0,.332.1.76.853,1.132a5.071,5.071,0,0,0,1.167.381A.7.7,0,0,1,7.377,16.7a6.539,6.539,0,0,1-1.488-.491A2.574,2.574,0,0,1,4.26,13.822c0-2.987,4.433-3.182,6.373-3.195ZM18.069,10a10.265,10.265,0,0,1,1.533.222A2.853,2.853,0,0,1,21.8,11.588a2.087,2.087,0,0,1,0,1.8,2.891,2.891,0,0,1-2.205,1.377.649.649,0,0,1-.14.015.7.7,0,0,1-.138-1.378c.944-.2,1.177-.493,1.233-.612a.7.7,0,0,0,0-.6c-.118-.25-.577-.475-1.229-.605a9,9,0,0,0-1.341-.2A.7.7,0,0,1,18.069,10ZM3.938,9.983a.7.7,0,0,1,.093,1.389,8.7,8.7,0,0,0-1.328.194c-.67.133-1.131.359-1.25.61a.7.7,0,0,0,0,.6c.057.12.29.418,1.238.614a.7.7,0,0,1-.138,1.377.716.716,0,0,1-.139-.014A2.891,2.891,0,0,1,.2,13.374a2.089,2.089,0,0,1,0-1.8A2.866,2.866,0,0,1,2.417,10.2,10.09,10.09,0,0,1,3.938,9.983ZM11,0a4.593,4.593,0,0,1,0,9.185,4.518,4.518,0,0,1-2.81-.964.7.7,0,0,1-.122-.976.689.689,0,0,1,.972-.122,3.155,3.155,0,0,0,1.96.67,3.2,3.2,0,1,0-3.184-3.2.692.692,0,1,1-1.385,0A4.585,4.585,0,0,1,11,0Zm5.683.951a3.627,3.627,0,0,1,0,7.253.7.7,0,0,1,0-1.392,2.234,2.234,0,0,0,0-4.468.7.7,0,0,1,0-1.392ZM5.328.913a.7.7,0,0,1,0,1.392,2.242,2.242,0,0,0,0,4.484.7.7,0,0,1,0,1.392,3.634,3.634,0,0,1,0-7.269Z" fill="#9d9d9d"/></svg>
