<svg xmlns="http://www.w3.org/2000/svg" width="17" height="20" viewBox="0 0 17 20"><path d="M10.141,17.569a.771.771,0,0,1,1-.02.755.755,0,0,1,.1,1.069A3.559,3.559,0,0,1,8.456,20h0l-.217-.009a3.557,3.557,0,0,1-2.56-1.372h0l-.066-.092a.755.755,0,0,1,.168-.977.77.77,0,0,1,1.078.1,2.056,2.056,0,0,0,.417.413,1.989,1.989,0,0,0,2.777-.413h.009ZM8.465,0c3.07,0,6.512,2.165,6.9,5.64h0V7.453a3.754,3.754,0,0,0,.887,1.76.671.671,0,0,1,.071.1A4.059,4.059,0,0,1,17,11.359h0l-.027.185a4.14,4.14,0,0,1-.94,2.754,4.886,4.886,0,0,1-3.123,1.54,40.662,40.662,0,0,1-8.872,0A4.832,4.832,0,0,1,.968,14.3,4.08,4.08,0,0,1,0,11.562H0v-.123a4.2,4.2,0,0,1,.728-2.1h0L.8,9.248a3.833,3.833,0,0,0,.887-1.76h0V5.675l.049-.1a.765.765,0,0,1,1.415.26h0V7.646a.454.454,0,0,1,0,.1,5.263,5.263,0,0,1-1.224,2.446,2.528,2.528,0,0,0-.39,1.249h0v.194a2.573,2.573,0,0,0,.586,1.716,3.32,3.32,0,0,0,2.076.986,40.027,40.027,0,0,0,8.588,0,3.329,3.329,0,0,0,2.12-1.03,2.547,2.547,0,0,0,.559-1.663h0v-.2a2.623,2.623,0,0,0-.382-1.258,5.266,5.266,0,0,1-1.3-2.446.461.461,0,0,1,0-.1h0V5.816c-.257-2.657-2.928-4.3-5.252-4.3a5.759,5.759,0,0,0-2.821.73h0L5.609,2.3a.769.769,0,0,1-.671-.047A.754.754,0,0,1,4.97.924,7.25,7.25,0,0,1,8.465,0Z" fill="#9d9d9d"/></svg>
