<svg xmlns="http://www.w3.org/2000/svg" width="38.947" height="38.947" viewBox="0 0 38.947 38.947"><g transform="translate(-2 -14)"><g transform="translate(2 14)"><path d="M36.142,13.223a1.427,1.427,0,0,1,1.411,1.425h0v12.6c0,7.212-4.509,11.695-11.738,11.695H20.067a1.444,1.444,0,0,1-1.446-1.425,1.461,1.461,0,0,1,1.446-1.443h5.748c5.7,0,8.846-3.125,8.9-8.827h0v-12.6A1.427,1.427,0,0,1,36.142,13.223ZM24.387,1.511a1.444,1.444,0,0,1,1.428,1.442A1.427,1.427,0,0,1,24.37,4.379H11.72c-5.7,0-8.846,3.143-8.846,8.844h0v14.03c0,5.7,3.15,8.827,8.846,8.827a1.461,1.461,0,0,1,1.446,1.443,1.444,1.444,0,0,1-1.446,1.425C4.492,38.947,0,34.465,0,27.253H0V13.223C0,5.993,4.492,1.511,11.72,1.511H24.387Zm2.176,13.044a1.427,1.427,0,0,1,2.058,1.862h0l-5.507,7.092a1.532,1.532,0,0,1-.964.55,1.447,1.447,0,0,1-1.05-.309h0l-5.284-4.139-4.75,6.165a1.424,1.424,0,1,1-2.272-1.717h0l5.628-7.315a1.448,1.448,0,0,1,2.031-.258h0l5.284,4.139L26.383,14.7ZM31.939.389a5.047,5.047,0,1,1-3.112,4.677h0l.011-.358A5.049,5.049,0,0,1,31.939.389Zm1.948,2.5a2.181,2.181,0,1,0,2.186,2.181A2.183,2.183,0,0,0,33.887,2.885Z" transform="translate(0 0)" fill="#e8bc52"/></g></g></svg>