<svg xmlns="http://www.w3.org/2000/svg" width="39.452" height="38.947" viewBox="0 0 39.452 38.947"><g transform="translate(-2 -2)"><g transform="translate(2 2)"><path d="M37.922,25.114A1.477,1.477,0,0,1,39.4,26.591c0,.043-.278,3.531-.341,4.6a9.018,9.018,0,0,1-1.922,5.054,7.362,7.362,0,0,1-6.089,2.694H29.4l-5.448,0H18.808a1.48,1.48,0,1,1,0-2.96h5.2l5.38,0h1.65a4.381,4.381,0,0,0,3.815-1.624A6.124,6.124,0,0,0,36.1,31.017c.063-1.089.367-4.541.367-4.541A1.463,1.463,0,0,1,37.922,25.114Zm-36.392,0a1.464,1.464,0,0,1,1.453,1.364s.3,3.452.369,4.539A6.11,6.11,0,0,0,4.6,34.356a4.377,4.377,0,0,0,3.815,1.626h0l.871,0h1.369a1.48,1.48,0,1,1,0,2.96H9.277l-.869,0a7.359,7.359,0,0,1-6.09-2.7A9,9,0,0,1,.4,31.195c-.065-1.074-.343-4.561-.343-4.6A1.477,1.477,0,0,1,1.53,25.114Zm18.2-.181a1.481,1.481,0,0,1,1.48,1.48h0v2.554a1.48,1.48,0,0,1-2.96,0h0V26.413A1.481,1.481,0,0,1,19.726,24.933ZM22.274,0a5.847,5.847,0,0,1,5.79,5.094h3.874a7.522,7.522,0,0,1,7.513,7.513h0V19.45a1.483,1.483,0,0,1-.663,1.235A33.835,33.835,0,0,1,24.82,25.874a1.435,1.435,0,0,1-.205.014,1.481,1.481,0,0,1-1.433-1.117A3.561,3.561,0,0,0,19.716,22.1a3.606,3.606,0,0,0-3.511,2.676,1.466,1.466,0,0,1-1.632,1.076A33.829,33.829,0,0,1,.665,20.685,1.478,1.478,0,0,1,0,19.45H0V12.607A7.532,7.532,0,0,1,7.533,5.094h0l3.854,0A5.845,5.845,0,0,1,17.178,0h5.1Zm0,2.96h-5.1A2.882,2.882,0,0,0,14.3,5.838h0l0,.73A1.479,1.479,0,0,1,12.82,8.05h0l-5.285,0A4.568,4.568,0,0,0,2.96,12.607h0V18.64a30.852,30.852,0,0,0,10.876,4.1,6.621,6.621,0,0,1,5.879-3.6,6.526,6.526,0,0,1,5.86,3.618A30.9,30.9,0,0,0,36.492,18.64h0V12.607a4.558,4.558,0,0,0-4.553-4.553H19.726a1.48,1.48,0,1,1,0-2.96h5.329A2.885,2.885,0,0,0,22.274,2.96Z" transform="translate(0 0)" fill="#6691e7"/></g></g></svg>