<svg xmlns="http://www.w3.org/2000/svg" width="33.105" height="38.947" viewBox="0 0 33.105 38.947"><g transform="translate(-3.5 -2)"><g transform="translate(3.5 2)"><path d="M21.3,0a1.045,1.045,0,0,1,.113.024h.4a1.447,1.447,0,0,1,1.05.453h0L32.7,10.82a1.482,1.482,0,0,1,.406,1.019h0V30.074a8.8,8.8,0,0,1-8.7,8.873H8.9A8.691,8.691,0,0,1,0,30.074H0V25.161a1.464,1.464,0,0,1,1.456-1.47,1.464,1.464,0,0,1,1.456,1.47h0v4.913A5.765,5.765,0,0,0,8.9,36.007H24.408a5.867,5.867,0,0,0,5.785-5.932h0V12.43L22.759,4.613V7.177a3.565,3.565,0,0,0,3.535,3.576,1.47,1.47,0,0,1,0,2.941h0a6.5,6.5,0,0,1-6.444-6.517h0V2.964H8.9A5.994,5.994,0,0,0,2.912,8.8h0v8.363a1.464,1.464,0,0,1-1.456,1.47A1.464,1.464,0,0,1,0,17.168H0V8.8A8.959,8.959,0,0,1,8.9.024H21.191C21.232.02,21.264,0,21.3,0ZM16.2,15.124a1.464,1.464,0,0,1,1.456,1.47h0v3.335h3.3a1.47,1.47,0,0,1,0,2.941h-3.3V26.2a1.456,1.456,0,1,1-2.912,0h0V22.87h-3.3a1.47,1.47,0,0,1,0-2.941h3.3V16.594A1.464,1.464,0,0,1,16.2,15.124Z" transform="translate(0 0)" fill="#50c3e6"/></g></g></svg>