<svg xmlns="http://www.w3.org/2000/svg" width="25.589" height="25" viewBox="0 0 25.589 25"><g transform="translate(0)"><path d="M13.373,0h1.738V2.326c3.11.017,6.218-.032,9.326.017a1,1,0,0,1,1.122,1.11c.049,5.727-.012,11.456.029,17.183a3.386,3.386,0,0,1-.282,1.759,2.648,2.648,0,0,1-1.468.288c-2.91-.014-5.817-.008-8.727-.008V25H13.3C8.871,24.192,4.435,23.451,0,22.674Q0,12.5,0,2.331C4.458,1.552,8.917.794,13.374,0Z" transform="translate(0)" fill="#2a5699"/><path d="M22.952,13.75h9.593v18.6H22.952V30.029H30.51V28.866H22.952V27.413H30.51V26.25H22.952V24.8H30.51V23.634H22.952V22.18H30.51V21.017H22.952V19.564H30.51V18.4H22.952V16.948H30.51V15.785H22.952Zm-9.1,5.137c.552-.032,1.1-.055,1.657-.084.387,1.962.782,3.921,1.2,5.875.329-2.017.692-4.029,1.043-6.043.581-.02,1.163-.052,1.741-.087C18.833,21.363,18.257,24.2,17.539,27c-.486.253-1.212-.012-1.788.029-.387-1.924-.837-3.837-1.183-5.77-.34,1.878-.782,3.738-1.171,5.6q-.837-.044-1.68-.1c-.482-2.558-1.049-5.1-1.5-7.663.5-.023,1-.044,1.494-.061.3,1.852.64,3.695.9,5.549.41-1.9.829-3.8,1.236-5.7Z" transform="translate(-7.84 -10.552)" fill="#fff"/></g></svg>