<?xml version="1.0" standalone="no"?>
<!DOCTYPE svg PUBLIC "-//W3C//DTD SVG 20010904//EN"
 "http://www.w3.org/TR/2001/REC-SVG-20010904/DTD/svg10.dtd">
<svg version="1.0" xmlns="http://www.w3.org/2000/svg"
 width="52.000000pt" height="52.000000pt" viewBox="0 0 512.000000 512.000000"
 preserveAspectRatio="xMidYMid meet">

<g transform="translate(0.000000,512.000000) scale(0.100000,-0.100000)"
fill="#000000" stroke="none">
<path d="M3160 4895 l-225 -225 300 -300 299 -299 -900 -4 c-775 -3 -910 -6
-977 -20 -253 -52 -467 -146 -663 -290 -38 -28 -119 -100 -179 -161 -178 -179
-301 -380 -378 -621 -75 -236 -71 -144 -75 -1637 l-3 -1338 320 0 320 0 4
1322 c3 1217 4 1328 20 1387 96 355 344 602 698 698 58 15 149 17 939 20 l875
4 -300 -301 -300 -300 225 -225 225 -225 685 685 685 685 -685 685 -685 685
-225 -225z"/>
</g>
</svg>
