<svg xmlns="http://www.w3.org/2000/svg" width="44.04" height="18.971" viewBox="0 0 44.04 18.971"><g transform="translate(-587 -1556)"><path d="M-7861.994-1150.645a1.042,1.042,0,0,1-.326-.211l-8.484-8.486a1,1,0,0,1,0-1.414,1,1,0,0,1,1.414,0l6.78,6.781-.006-39.631a1,1,0,0,1,1-1,1,1,0,0,1,1,1l-.006,39.631,6.782-6.781a1,1,0,0,1,1.415,0,1,1,0,0,1,0,1.414l-8.487,8.486a1.006,1.006,0,0,1-.324.211,1,1,0,0,1-.382.076A1,1,0,0,1-7861.994-1150.645Z" transform="translate(1781.609 -6296.127) rotate(-90)"/></g></svg>