<svg xmlns="http://www.w3.org/2000/svg" width="422.546" height="488.494" viewBox="0 0 422.546 488.494">
  <g id="Grupo_235" data-name="Grupo 235" transform="translate(-762.727 -706.756)" opacity="0.05">
    <path id="Trazado_132" data-name="Trazado 132" d="M275.259,399.364c-8.723-.349-30.356-4.536-41.871-30.705L88.585,44.508,77.071,18.688,30.664,127.552l11.514,25.82L141.97,376.684s9.072,21.284-10.468,22.68H93.47v12.561H279.1V399.364Z" transform="translate(906.176 783.324)" fill="#1f3d80"/>
    <path id="Trazado_133" data-name="Trazado 133" d="M259.3,2.893V15.454s53.036,1.745,53.036,31.752v243.2s8.723,76.065-99.094,76.065c-76.065,0-72.925-76.065-72.925-76.065V47.206c0-30.007,47.1-31.752,47.1-31.752V2.893H1.794V15.454S48.9,17.2,48.9,47.206v243.2S51.341,390.2,197.19,390.2c132.59,0,135.382-78.857,135.382-99.792V47.206c0-30.007,53.036-31.752,53.036-31.752V2.893Z" transform="translate(760.934 703.863)" fill="#eb690e"/>
    <path id="Trazado_134" data-name="Trazado 134" d="M81.795,268.193l.349-1.047h0L169.723,62.328l-11.514-25.82L56.672,273.776C42.366,307.273,7.823,308.32,5.381,308.32h0v12.561H126.457V308.32c-58.27,0-47.1-34.195-44.662-40.126" transform="translate(778.979 872.973)" fill="#1f3d80"/>
  </g>
</svg>
