<svg xmlns="http://www.w3.org/2000/svg" width="81.501" height="48.499" viewBox="0 0 81.501 48.499"><path d="M8470.119,2822.5h-6a1,1,0,0,1,0-2h6a1,1,0,0,1,0,2Zm-12,0h-6a1,1,0,0,1,0-2h6a1,1,0,0,1,0,2Zm-12,0h-6a1,1,0,0,1,0-2h6a1,1,0,0,1,0,2Zm-12,0h-6a1,1,0,0,1,0-2h6a1,1,0,0,1,0,2Zm-12,0h-6a1,1,0,0,1,0-2h6a1,1,0,0,1,0,2Zm-12,0h-6a1,1,0,0,1,0-2h6a1,1,0,0,1,0,2Zm-12,0h-6a1,1,0,0,1,0-2h6a1,1,0,0,1,0,2Zm-7.5-4.5a1,1,0,0,1-1-1v-6a1,1,0,0,1,2,0v6A1,1,0,0,1,8390.618,2818Zm0-12a1,1,0,0,1-1-1v-6a1,1,0,0,1,2,0v6A1,1,0,0,1,8390.618,2806Zm0-12a1,1,0,0,1-1-1v-6a1,1,0,0,1,2,0v6A1,1,0,0,1,8390.618,2794Zm0-12a1,1,0,0,1-1-1v-6a1,1,0,0,1,2,0v6A1,1,0,0,1,8390.618,2782Z" transform="translate(-8389.618 -2774)"/></svg>